PathFileType	4	(X/Y/Z)	13_2_85_p0_0-684_filt_butterworth.trc
DataRate	CameraRate	NumFrames	NumMarkers	Units	OrigDataRate	OrigDataStartFrame	OrigNumFrames
59.0	59.0	5	27	m	59.0	85	684
Frame#	Time	RHip			RKnee			RAnkle			RBigToe			RSmallToe			RHeel			LHip			LKnee			LAnkle			LBigToe			LSmallToe			LHeel			Neck			Head			Nose			RShoulder			RElbow			RWrist			RThumb			RIndex			RPinky			LShoulder			LElbow			LWrist			LThumb			LIndex			LPinky			
		X1	Y1	Z1	X2	Y2	Z2	X3	Y3	Z3	X4	Y4	Z4	X5	Y5	Z5	X6	Y6	Z6	X7	Y7	Z7	X8	Y8	Z8	X9	Y9	Z9	X10	Y10	Z10	X11	Y11	Z11	X12	Y12	Z12	X13	Y13	Z13	X14	Y14	Z14	X15	Y15	Z15	X16	Y16	Z16	X17	Y17	Z17	X18	Y18	Z18	X19	Y19	Z19	X20	Y20	Z20	X21	Y21	Z21	X22	Y22	Z22	X23	Y23	Z23	X24	Y24	Z24	X25	Y25	Z25	X26	Y26	Z26	X27	Y27	Z27	
85	1.4406779661016949	0.2809347867859171	0.5103560158472826	1.0919439347935147	0.2678863692966595	0.06107589127827895	1.0993812292116367	0.2756218061570072	-0.3482460914920592	1.1713765815688097	0.25446032142003505	-0.3639637663629228	1.016301667672951	0.3059559601364266	-0.3731171374649898	1.0450851923644262	0.2561151009837295	-0.4528667394490285	1.2844793842306073	0.08311049154570752	0.5084155929109655	1.072821316630206	0.08016149145330394	0.03498849007679017	1.1336271423879238	0.09816975748117385	-0.37750031485962166	1.202679229978064	0.11448269036582404	-0.36491980914715055	1.0209815728029292	0.05677773777774843	-0.3661059830128838	1.059173383138551	0.12073195965420501	-0.4304722003656409	1.2678782248516067	0.17889010714770814	1.0272316114356816	1.0375841647344735	0.1587941653128165	1.2611138235611727	0.9341712497184281	0.14971838661209813	1.1408530512384871	0.9082245880396453	0.3107075824947708	0.960850335602374	1.0266752314876282	0.4667924041614571	0.7275614357157447	1.136640343322204	0.39430421589705567	0.7339496543548448	0.90895630284196	0.35877461971085034	0.7529607111687644	0.7899491746411345	0.36024446282295214	0.7362077700227847	0.7529014876034106	0.3654494588390267	0.7005859878449892	0.7715583735921272	0.03639466533967093	0.9520183670234605	1.0968855644657647	-0.024070620052742457	0.7183827625635615	1.203517866177779	-0.0724590840889384	0.7255655529396616	1.0064686315458071	-0.055358751379790266	0.7453596736698562	0.8931268282951257	-0.08701696524334251	0.7474902790081344	0.8533118340056731	-0.09962579957451806	0.6962345196165045	0.8939609798329264	
86	1.4576271186440677	0.2811416637221201	0.512176146349234	1.0923676746765105	0.2656349219152442	0.06425289400315864	1.092924355523145	0.27526396842144046	-0.3480700964836226	1.1697077956853512	0.25440048423584916	-0.36378482355033076	1.016363465028895	0.30519473356742205	-0.3694931814243857	1.0387066196136543	0.2559007122521033	-0.45246074410515585	1.283649111129601	0.08316353196269588	0.5105743695940721	1.0723007849649742	0.08119794264198162	0.03634869864710383	1.1298879902724963	0.09900189812734922	-0.3771366157468992	1.2018797227510571	0.11403782779145036	-0.3636600912636101	1.0204991074435465	0.05674637067255636	-0.36608209827519983	1.0592486793997056	0.12083216830343994	-0.43102346062199287	1.268655021950039	0.1798956146266492	1.0268104542262797	1.0349478930215348	0.15824124018205152	1.2628276478843536	0.9322504607658911	0.14938007721878835	1.1409183117191402	0.9080138163930629	0.31084060074508524	0.9595363090546549	1.0263961237599526	0.46531956449870526	0.7285873680500385	1.1337288225294602	0.4046447308788096	0.7428044556922481	0.907036828124224	0.3740234196764594	0.7625906054666706	0.7927468837129961	0.3754004013878793	0.7495940875834555	0.7560650123244249	0.38035845598791795	0.7092876244667293	0.7710055977306727	0.03642376668093024	0.9528318836550506	1.0970685929541466	-0.022156858349521674	0.7212907600569937	1.197578661413341	-0.08232718995965793	0.7379479088128508	1.0097287191532418	-0.07053389875480877	0.7577308623477917	0.9067136853659858	-0.09954363315849175	0.7585323238180759	0.8669984528505902	-0.1131836645954609	0.7098577305214178	0.8944587902217458	
87	1.4745762711864407	0.2814771236340506	0.5132975776025992	1.0927562989464188	0.2634087777812222	0.06710866876450322	1.08679860237991	0.27474381011197735	-0.34811397668575217	1.1681636620624107	0.2543766725497726	-0.36355526609102995	1.0165127171793067	0.3047135324538684	-0.36563949678032365	1.0319537715184512	0.2557107233082691	-0.45217190532113555	1.2828754824584265	0.08320609597897545	0.5121642467936524	1.0712895851013011	0.08254746932411137	0.038048451296301355	1.1252200037603737	0.09984335735078584	-0.3767164348975467	1.2008090611626068	0.11335963110282096	-0.36250170888912825	1.0192543445266093	0.056425986620730784	-0.36632123661720206	1.059826403321619	0.12091505534210616	-0.43160302598212014	1.2694096659686098	0.1808957054653233	1.0263218803213205	1.0323469526460052	0.15787122233974962	1.2642681883097389	0.9310289535549582	0.14928496660688018	1.1410589508538291	0.9080139900256872	0.3107565234860438	0.9580098642455825	1.0264115582326148	0.46128014128938677	0.7311428797278876	1.1329389930465217	0.4150349745109188	0.7499292004115482	0.9081015793809444	0.3879040102372621	0.7705272357504178	0.7979536548919964	0.3890467605886972	0.7613582398970327	0.7643422184490032	0.3942983981167183	0.7187195225305513	0.775730384942188	0.03646002509305731	0.9539550473813383	1.0971868618812035	-0.01899854373843316	0.725756909358285	1.192243941143814	-0.08894671938658907	0.7510061584710014	1.0115510606689775	-0.08421625034966868	0.7711824530528408	0.919110768921598	-0.10978184463231186	0.7708231301966413	0.8796034293696897	-0.12476959027127645	0.7232921147808821	0.8936347764736792	
88	1.4915254237288136	0.2818262154177041	0.5136322082021949	1.0929294286155389	0.2612385407003612	0.06948299514899742	1.0810701226279122	0.2740855292873088	-0.3483012599039056	1.1667190362340176	0.25440932238881636	-0.3634414536766329	1.0169025184318388	0.3046818286295241	-0.36251861511695965	1.0265049521508485	0.2555640955051308	-0.45210469655993646	1.282136909598255	0.08321231081515747	0.5131437169249735	1.0699204973741374	0.08410482518897838	0.039981646210184685	1.1195802977032965	0.1006447006978819	-0.3762765255404537	1.1995345787209257	0.11263262974408098	-0.3617060338322167	1.0172624152756913	0.055974278229011194	-0.36665761029110167	1.0605569669600468	0.12097626365165176	-0.4322046930440687	1.2701318628088862	0.1817539428998801	1.0259807546017727	1.0300903340767762	0.15770391035528455	1.2652813362289137	0.9305283835654565	0.1493316067612728	1.1412087935628952	0.9083551745425734	0.3106104723203532	0.9567944155651062	1.0265052120997082	0.4553093544020873	0.7343869323716885	1.1340392126312195	0.42463828047674257	0.7550452179222807	0.912141885181631	0.39915564838824275	0.7779654857886739	0.8045475675825227	0.40054030250514594	0.7708818904061541	0.7768512680542015	0.40565390108042376	0.7292730524719544	0.7845826509937841	0.03650354205674029	0.955007196899975	1.0972076757736087	-0.015776818555677426	0.7296953489157525	1.1889910020809404	-0.09185196452079991	0.7630922162661731	1.0137832015130015	-0.09413660224589186	0.7860621340061771	0.9317149173028705	-0.11740671757020711	0.7850310886149869	0.8922499669396934	-0.13308470917033377	0.7367025749653336	0.8926079987653224	
89	1.5084745762711864	0.2820564021672272	0.5131519821743149	1.092688197852188	0.2592202355644612	0.07126043168396179	1.0757008586889345	0.2733489627982967	-0.3486263911048864	1.1654795132980305	0.25449582564254203	-0.36353627332519844	1.0175803774906975	0.3052771598170966	-0.3608200442997159	1.0235802503555853	0.2554815030164675	-0.4522757509989543	1.2814731098264331	0.08316457122150822	0.5134352525875048	1.0684337491139055	0.0857553789579191	0.04198646310850934	1.113042935929142	0.10136838431609202	-0.3758719638244105	1.1981740829550056	0.11216796021023881	-0.36132824929237445	1.0147948682249401	0.055777992581833566	-0.36681806935992073	1.0606011822596133	0.12101087622648331	-0.43280600085776794	1.2707907141287709	0.18228099570253103	1.0258577852225104	1.028703008397559	0.15768380590516146	1.2658608418413146	0.9305010919215403	0.14938778635516473	1.1412095209698438	0.9090035070546298	0.3105696478424507	0.9561743241641941	1.0268747259274658	0.44850500811111627	0.7369422658895445	1.1361897527981308	0.4323663784358347	0.7582647522296143	0.9187662706168008	0.40690215118412265	0.786668466289321	0.8109630552728082	0.4093217089244066	0.7790435425942673	0.7908334154514374	0.4135740447915542	0.7406194947808015	0.794968372034704	0.03654265460136642	0.9554994962944738	1.0971509086675786	-0.01387851367241869	0.7303878337655072	1.188761017034978	-0.09101779231066912	0.7729949813501439	1.0185385878414714	-0.09802679166328841	0.8025200183047169	0.944666876306512	-0.12157458614662459	0.8015138513701459	0.9047162495826009	-0.13703567394585295	0.7511371089130695	0.8928110493744095	
